# This file uses centimeters as units for non-parametric coordinates.

mtllib StageSize.mtl
g default
v -8.657340 -0.122938 8.657340
v 8.657340 -0.122938 8.657340
v -8.657340 0.122938 8.657340
v 8.657340 0.122938 8.657340
v -8.657340 0.122938 -8.657340
v 8.657340 0.122938 -8.657340
v -8.657340 -0.122938 -8.657340
v 8.657340 -0.122938 -8.657340
v -13.296809 4.956279 13.296809
v 13.296809 4.956279 13.296809
v 13.296809 5.202155 13.296809
v -13.296809 5.202155 13.296809
v -13.296809 5.202155 -13.296809
v 13.296809 5.202155 -13.296809
v 13.296809 4.956279 -13.296809
v -13.296809 4.956279 -13.296809
vt 0.375000 0.000000
vt 0.625000 0.000000
vt 0.375000 0.250000
vt 0.625000 0.250000
vt 0.375000 0.500000
vt 0.625000 0.500000
vt 0.375000 0.750000
vt 0.625000 0.750000
vt 0.375000 1.000000
vt 0.625000 1.000000
vt 0.875000 0.000000
vt 0.875000 0.250000
vt 0.125000 0.000000
vt 0.125000 0.250000
vt 0.375000 0.000000
vt 0.625000 0.000000
vt 0.625000 0.250000
vt 0.375000 0.250000
vt 0.375000 0.500000
vt 0.625000 0.500000
vt 0.625000 0.750000
vt 0.375000 0.750000
vt 0.875000 0.000000
vt 0.875000 0.250000
vt 0.125000 0.000000
vt 0.125000 0.250000
vn 0.000000 0.000000 1.000000
vn 0.000000 0.000000 1.000000
vn 0.000000 0.000000 1.000000
vn 0.000000 0.000000 1.000000
vn 0.000000 1.000000 0.000000
vn 0.000000 1.000000 0.000000
vn 0.000000 1.000000 0.000000
vn 0.000000 1.000000 0.000000
vn 0.000000 0.000000 -1.000000
vn 0.000000 0.000000 -1.000000
vn 0.000000 0.000000 -1.000000
vn 0.000000 0.000000 -1.000000
vn 0.000000 -1.000000 0.000000
vn 0.000000 -1.000000 0.000000
vn 0.000000 -1.000000 0.000000
vn 0.000000 -1.000000 0.000000
vn 1.000000 0.000000 0.000000
vn 1.000000 0.000000 0.000000
vn 1.000000 0.000000 0.000000
vn 1.000000 0.000000 0.000000
vn -1.000000 0.000000 0.000000
vn -1.000000 0.000000 0.000000
vn -1.000000 0.000000 0.000000
vn -1.000000 0.000000 0.000000
vn 0.000000 -0.674422 0.738346
vn 0.000000 -0.674422 0.738346
vn 0.000000 -0.674422 0.738346
vn 0.000000 -0.674422 0.738346
vn 0.000000 0.674422 -0.738346
vn 0.000000 0.674422 -0.738346
vn 0.000000 0.674422 -0.738346
vn 0.000000 0.674422 -0.738346
vn 0.000000 0.674422 0.738346
vn 0.000000 0.674422 0.738346
vn 0.000000 0.674422 0.738346
vn 0.000000 0.674422 0.738346
vn 0.000000 -0.674422 -0.738346
vn 0.000000 -0.674422 -0.738346
vn 0.000000 -0.674422 -0.738346
vn 0.000000 -0.674422 -0.738346
vn 0.738346 -0.674422 0.000000
vn 0.738346 -0.674422 0.000000
vn 0.738346 -0.674422 0.000000
vn 0.738346 -0.674422 0.000000
vn -0.738346 0.674422 0.000000
vn -0.738346 0.674422 0.000000
vn -0.738346 0.674422 0.000000
vn -0.738346 0.674422 0.000000
vn -0.738346 -0.674422 0.000000
vn -0.738346 -0.674422 0.000000
vn -0.738346 -0.674422 0.000000
vn -0.738346 -0.674422 0.000000
vn 0.738346 0.674422 0.000000
vn 0.738346 0.674422 0.000000
vn 0.738346 0.674422 0.000000
vn 0.738346 0.674422 0.000000
s off
g pCube1
usemtl initialShadingGroup
f 9/15/1 10/16/2 11/17/3 12/18/4
f 3/3/5 4/4/6 6/6/7 5/5/8
f 13/19/9 14/20/10 15/21/11 16/22/12
f 7/7/13 8/8/14 2/10/15 1/9/16
f 10/16/17 15/23/18 14/24/19 11/17/20
f 16/25/21 9/15/22 12/18/23 13/26/24
f 1/1/25 2/2/26 10/16/27 9/15/28
f 4/4/29 3/3/30 12/18/31 11/17/32
f 5/5/33 6/6/34 14/20/35 13/19/36
f 8/8/37 7/7/38 16/22/39 15/21/40
f 2/2/41 8/11/42 15/23/43 10/16/44
f 6/12/45 4/4/46 11/17/47 14/24/48
f 7/13/49 1/1/50 9/15/51 16/25/52
f 3/3/53 5/14/54 13/26/55 12/18/56
